<mxfile host="app.diagrams.net" modified="2023-05-18T13:15:59.746Z" agent="Mozilla/5.0 (Macintosh; Intel Mac OS X 10_15_7) AppleWebKit/537.36 (KHTML, like Gecko) Chrome/112.0.0.0 Safari/537.36" etag="ofkffV3JPEGpbVlwrWZU" version="21.3.2" type="github">
  <diagram id="C5RBs43oDa-KdzZeNtuy" name="Page-1">
    <mxGraphModel dx="1383" dy="741" grid="1" gridSize="10" guides="1" tooltips="1" connect="1" arrows="1" fold="1" page="1" pageScale="1" pageWidth="827" pageHeight="1169" math="0" shadow="0">
      <root>
        <mxCell id="WIyWlLk6GJQsqaUBKTNV-0" />
        <mxCell id="WIyWlLk6GJQsqaUBKTNV-1" parent="WIyWlLk6GJQsqaUBKTNV-0" />
        <mxCell id="WIyWlLk6GJQsqaUBKTNV-2" value="Select Pipeline" style="rounded=0;html=1;jettySize=auto;orthogonalLoop=1;fontSize=11;endArrow=block;endFill=0;endSize=8;strokeWidth=1;shadow=0;labelBackgroundColor=none;edgeStyle=orthogonalEdgeStyle;" parent="WIyWlLk6GJQsqaUBKTNV-1" source="WIyWlLk6GJQsqaUBKTNV-3" target="WIyWlLk6GJQsqaUBKTNV-6" edge="1">
          <mxGeometry x="-0.4444" y="18" relative="1" as="geometry">
            <Array as="points">
              <mxPoint x="260" y="145" />
              <mxPoint x="220" y="145" />
            </Array>
            <mxPoint x="10" y="-3" as="offset" />
          </mxGeometry>
        </mxCell>
        <mxCell id="WIyWlLk6GJQsqaUBKTNV-3" value="Dashboard" style="rounded=1;whiteSpace=wrap;html=1;fontSize=12;glass=0;strokeWidth=1;shadow=0;" parent="WIyWlLk6GJQsqaUBKTNV-1" vertex="1">
          <mxGeometry x="170" y="80" width="1040" height="40" as="geometry" />
        </mxCell>
        <mxCell id="WIyWlLk6GJQsqaUBKTNV-4" value="Select Files" style="rounded=0;html=1;jettySize=auto;orthogonalLoop=1;fontSize=11;endArrow=block;endFill=0;endSize=8;strokeWidth=1;shadow=0;labelBackgroundColor=none;edgeStyle=orthogonalEdgeStyle;" parent="WIyWlLk6GJQsqaUBKTNV-1" source="WIyWlLk6GJQsqaUBKTNV-6" target="WIyWlLk6GJQsqaUBKTNV-10" edge="1">
          <mxGeometry y="50" relative="1" as="geometry">
            <mxPoint as="offset" />
          </mxGeometry>
        </mxCell>
        <mxCell id="WIyWlLk6GJQsqaUBKTNV-6" value="Start Analysis" style="rhombus;whiteSpace=wrap;html=1;shadow=0;fontFamily=Helvetica;fontSize=12;align=center;strokeWidth=1;spacing=6;spacingTop=-4;" parent="WIyWlLk6GJQsqaUBKTNV-1" vertex="1">
          <mxGeometry x="170" y="170" width="100" height="80" as="geometry" />
        </mxCell>
        <mxCell id="WIyWlLk6GJQsqaUBKTNV-8" value="Set up Run" style="rounded=0;html=1;jettySize=auto;orthogonalLoop=1;fontSize=11;endArrow=block;endFill=0;endSize=8;strokeWidth=1;shadow=0;labelBackgroundColor=none;edgeStyle=orthogonalEdgeStyle;" parent="WIyWlLk6GJQsqaUBKTNV-1" source="WIyWlLk6GJQsqaUBKTNV-10" edge="1">
          <mxGeometry x="0.0095" y="49" relative="1" as="geometry">
            <mxPoint y="-1" as="offset" />
            <mxPoint x="220" y="430" as="targetPoint" />
          </mxGeometry>
        </mxCell>
        <mxCell id="WIyWlLk6GJQsqaUBKTNV-10" value="Edit Definition" style="rhombus;whiteSpace=wrap;html=1;shadow=0;fontFamily=Helvetica;fontSize=12;align=center;strokeWidth=1;spacing=6;spacingTop=-4;" parent="WIyWlLk6GJQsqaUBKTNV-1" vertex="1">
          <mxGeometry x="170" y="290" width="100" height="80" as="geometry" />
        </mxCell>
        <mxCell id="r_vhM-KLNuA45PHsS9CR-2" value="Preview&lt;br&gt;and Launch" style="rhombus;whiteSpace=wrap;html=1;shadow=0;fontFamily=Helvetica;fontSize=12;align=center;strokeWidth=1;spacing=6;spacingTop=-4;" parent="WIyWlLk6GJQsqaUBKTNV-1" vertex="1">
          <mxGeometry x="170" y="430" width="100" height="80" as="geometry" />
        </mxCell>
        <mxCell id="r_vhM-KLNuA45PHsS9CR-7" value="" style="endArrow=classic;html=1;rounded=0;exitX=0.369;exitY=0.975;exitDx=0;exitDy=0;exitPerimeter=0;" parent="WIyWlLk6GJQsqaUBKTNV-1" edge="1">
          <mxGeometry width="50" height="50" relative="1" as="geometry">
            <mxPoint x="479.26" y="120" as="sourcePoint" />
            <mxPoint x="480" y="201" as="targetPoint" />
            <Array as="points">
              <mxPoint x="480" y="161" />
            </Array>
          </mxGeometry>
        </mxCell>
        <mxCell id="r_vhM-KLNuA45PHsS9CR-9" value="Data Management" style="rounded=1;whiteSpace=wrap;html=1;" parent="WIyWlLk6GJQsqaUBKTNV-1" vertex="1">
          <mxGeometry x="420" y="202" width="120" height="60" as="geometry" />
        </mxCell>
        <mxCell id="r_vhM-KLNuA45PHsS9CR-10" value="" style="endArrow=classic;html=1;rounded=0;exitX=0.369;exitY=0.975;exitDx=0;exitDy=0;exitPerimeter=0;" parent="WIyWlLk6GJQsqaUBKTNV-1" edge="1">
          <mxGeometry width="50" height="50" relative="1" as="geometry">
            <mxPoint x="739" y="120" as="sourcePoint" />
            <mxPoint x="740" y="201" as="targetPoint" />
          </mxGeometry>
        </mxCell>
        <mxCell id="r_vhM-KLNuA45PHsS9CR-11" value="Tools" style="rounded=1;whiteSpace=wrap;html=1;" parent="WIyWlLk6GJQsqaUBKTNV-1" vertex="1">
          <mxGeometry x="680" y="201" width="120" height="60" as="geometry" />
        </mxCell>
        <mxCell id="r_vhM-KLNuA45PHsS9CR-12" value="" style="rounded=0;html=1;jettySize=auto;orthogonalLoop=1;fontSize=11;endArrow=block;endFill=0;endSize=8;strokeWidth=1;shadow=0;labelBackgroundColor=none;edgeStyle=orthogonalEdgeStyle;" parent="WIyWlLk6GJQsqaUBKTNV-1" target="r_vhM-KLNuA45PHsS9CR-13" edge="1">
          <mxGeometry y="20" relative="1" as="geometry">
            <mxPoint as="offset" />
            <mxPoint x="740" y="261" as="sourcePoint" />
            <Array as="points">
              <mxPoint x="770" y="261" />
              <mxPoint x="770" y="356" />
              <mxPoint x="790" y="356" />
            </Array>
          </mxGeometry>
        </mxCell>
        <mxCell id="r_vhM-KLNuA45PHsS9CR-13" value="IGV" style="rhombus;whiteSpace=wrap;html=1;shadow=0;fontFamily=Helvetica;fontSize=12;align=center;strokeWidth=1;spacing=6;spacingTop=-4;" parent="WIyWlLk6GJQsqaUBKTNV-1" vertex="1">
          <mxGeometry x="740" y="450" width="100" height="80" as="geometry" />
        </mxCell>
        <mxCell id="r_vhM-KLNuA45PHsS9CR-14" value="" style="endArrow=classic;html=1;rounded=0;" parent="WIyWlLk6GJQsqaUBKTNV-1" edge="1">
          <mxGeometry width="50" height="50" relative="1" as="geometry">
            <mxPoint x="523" y="262" as="sourcePoint" />
            <mxPoint x="593" y="322" as="targetPoint" />
          </mxGeometry>
        </mxCell>
        <mxCell id="r_vhM-KLNuA45PHsS9CR-16" value="Panel Management" style="rhombus;whiteSpace=wrap;html=1;shadow=0;fontFamily=Helvetica;fontSize=12;align=center;strokeWidth=1;spacing=6;spacingTop=-4;" parent="WIyWlLk6GJQsqaUBKTNV-1" vertex="1">
          <mxGeometry x="543" y="321" width="100" height="80" as="geometry" />
        </mxCell>
        <mxCell id="r_vhM-KLNuA45PHsS9CR-19" value="Resource&lt;br&gt;Monitoring" style="rhombus;whiteSpace=wrap;html=1;shadow=0;fontFamily=Helvetica;fontSize=12;align=center;strokeWidth=1;spacing=6;spacingTop=-4;" parent="WIyWlLk6GJQsqaUBKTNV-1" vertex="1">
          <mxGeometry x="620" y="450" width="100" height="80" as="geometry" />
        </mxCell>
        <mxCell id="r_vhM-KLNuA45PHsS9CR-20" value="" style="rounded=0;html=1;jettySize=auto;orthogonalLoop=1;fontSize=11;endArrow=block;endFill=0;endSize=8;strokeWidth=1;shadow=0;labelBackgroundColor=none;edgeStyle=orthogonalEdgeStyle;entryX=0.5;entryY=0;entryDx=0;entryDy=0;" parent="WIyWlLk6GJQsqaUBKTNV-1" target="r_vhM-KLNuA45PHsS9CR-19" edge="1">
          <mxGeometry y="20" relative="1" as="geometry">
            <mxPoint as="offset" />
            <mxPoint x="710" y="261" as="sourcePoint" />
            <mxPoint x="760" y="450" as="targetPoint" />
            <Array as="points">
              <mxPoint x="711" y="261" />
              <mxPoint x="711" y="356" />
              <mxPoint x="670" y="356" />
            </Array>
          </mxGeometry>
        </mxCell>
        <mxCell id="r_vhM-KLNuA45PHsS9CR-21" value="Pipeline&lt;br&gt;Management" style="rhombus;whiteSpace=wrap;html=1;shadow=0;fontFamily=Helvetica;fontSize=12;align=center;strokeWidth=1;spacing=6;spacingTop=-4;" parent="WIyWlLk6GJQsqaUBKTNV-1" vertex="1">
          <mxGeometry x="429" y="321" width="100" height="80" as="geometry" />
        </mxCell>
        <mxCell id="r_vhM-KLNuA45PHsS9CR-22" value="Input Pool&lt;br&gt;Management" style="rhombus;whiteSpace=wrap;html=1;shadow=0;fontFamily=Helvetica;fontSize=12;align=center;strokeWidth=1;spacing=6;spacingTop=-4;" parent="WIyWlLk6GJQsqaUBKTNV-1" vertex="1">
          <mxGeometry x="310" y="321" width="100" height="80" as="geometry" />
        </mxCell>
        <mxCell id="r_vhM-KLNuA45PHsS9CR-23" value="" style="endArrow=classic;html=1;rounded=0;entryX=0.5;entryY=0;entryDx=0;entryDy=0;" parent="WIyWlLk6GJQsqaUBKTNV-1" target="r_vhM-KLNuA45PHsS9CR-22" edge="1">
          <mxGeometry width="50" height="50" relative="1" as="geometry">
            <mxPoint x="450" y="261" as="sourcePoint" />
            <mxPoint x="370" y="332" as="targetPoint" />
          </mxGeometry>
        </mxCell>
        <mxCell id="r_vhM-KLNuA45PHsS9CR-24" value="" style="endArrow=classic;html=1;rounded=0;" parent="WIyWlLk6GJQsqaUBKTNV-1" edge="1">
          <mxGeometry width="50" height="50" relative="1" as="geometry">
            <mxPoint x="479" y="261" as="sourcePoint" />
            <mxPoint x="479.24" y="321" as="targetPoint" />
          </mxGeometry>
        </mxCell>
        <mxCell id="r_vhM-KLNuA45PHsS9CR-25" value="" style="endArrow=classic;html=1;rounded=0;exitX=0.369;exitY=0.975;exitDx=0;exitDy=0;exitPerimeter=0;" parent="WIyWlLk6GJQsqaUBKTNV-1" edge="1">
          <mxGeometry width="50" height="50" relative="1" as="geometry">
            <mxPoint x="909" y="121" as="sourcePoint" />
            <mxPoint x="910" y="202" as="targetPoint" />
          </mxGeometry>
        </mxCell>
        <mxCell id="r_vhM-KLNuA45PHsS9CR-26" value="User Management" style="rounded=1;whiteSpace=wrap;html=1;" parent="WIyWlLk6GJQsqaUBKTNV-1" vertex="1">
          <mxGeometry x="850" y="202" width="120" height="60" as="geometry" />
        </mxCell>
        <mxCell id="r_vhM-KLNuA45PHsS9CR-27" value="" style="endArrow=classic;html=1;rounded=0;entryX=0.5;entryY=0;entryDx=0;entryDy=0;" parent="WIyWlLk6GJQsqaUBKTNV-1" target="r_vhM-KLNuA45PHsS9CR-28" edge="1">
          <mxGeometry width="50" height="50" relative="1" as="geometry">
            <mxPoint x="930" y="262" as="sourcePoint" />
            <mxPoint x="1000" y="322" as="targetPoint" />
          </mxGeometry>
        </mxCell>
        <mxCell id="r_vhM-KLNuA45PHsS9CR-28" value="User Admin" style="rhombus;whiteSpace=wrap;html=1;shadow=0;fontFamily=Helvetica;fontSize=12;align=center;strokeWidth=1;spacing=6;spacingTop=-4;" parent="WIyWlLk6GJQsqaUBKTNV-1" vertex="1">
          <mxGeometry x="930" y="321" width="100" height="80" as="geometry" />
        </mxCell>
        <mxCell id="r_vhM-KLNuA45PHsS9CR-31" value="Permission/Role&lt;br&gt;Management" style="rhombus;whiteSpace=wrap;html=1;shadow=0;fontFamily=Helvetica;fontSize=12;align=center;strokeWidth=1;spacing=6;spacingTop=-4;" parent="WIyWlLk6GJQsqaUBKTNV-1" vertex="1">
          <mxGeometry x="810" y="320" width="100" height="80" as="geometry" />
        </mxCell>
        <mxCell id="r_vhM-KLNuA45PHsS9CR-32" value="" style="endArrow=classic;html=1;rounded=0;entryX=0.5;entryY=0;entryDx=0;entryDy=0;" parent="WIyWlLk6GJQsqaUBKTNV-1" target="r_vhM-KLNuA45PHsS9CR-31" edge="1">
          <mxGeometry width="50" height="50" relative="1" as="geometry">
            <mxPoint x="890" y="260" as="sourcePoint" />
            <mxPoint x="810" y="331" as="targetPoint" />
          </mxGeometry>
        </mxCell>
        <mxCell id="r_vhM-KLNuA45PHsS9CR-36" value="" style="endArrow=classic;html=1;rounded=0;exitX=0.369;exitY=0.975;exitDx=0;exitDy=0;exitPerimeter=0;" parent="WIyWlLk6GJQsqaUBKTNV-1" edge="1">
          <mxGeometry width="50" height="50" relative="1" as="geometry">
            <mxPoint x="1149" y="120" as="sourcePoint" />
            <mxPoint x="1150" y="201" as="targetPoint" />
          </mxGeometry>
        </mxCell>
        <mxCell id="r_vhM-KLNuA45PHsS9CR-37" value="Pivat Tasks&lt;br&gt;(display on dashboard)" style="rounded=1;whiteSpace=wrap;html=1;" parent="WIyWlLk6GJQsqaUBKTNV-1" vertex="1">
          <mxGeometry x="1090" y="201" width="120" height="60" as="geometry" />
        </mxCell>
        <mxCell id="r_vhM-KLNuA45PHsS9CR-39" value="" style="endArrow=classic;html=1;rounded=0;entryX=0.5;entryY=0;entryDx=0;entryDy=0;" parent="WIyWlLk6GJQsqaUBKTNV-1" target="r_vhM-KLNuA45PHsS9CR-40" edge="1">
          <mxGeometry width="50" height="50" relative="1" as="geometry">
            <mxPoint x="1170" y="261" as="sourcePoint" />
            <mxPoint x="1240" y="321" as="targetPoint" />
          </mxGeometry>
        </mxCell>
        <mxCell id="r_vhM-KLNuA45PHsS9CR-40" value="Result Analysis" style="rhombus;whiteSpace=wrap;html=1;shadow=0;fontFamily=Helvetica;fontSize=12;align=center;strokeWidth=1;spacing=6;spacingTop=-4;" parent="WIyWlLk6GJQsqaUBKTNV-1" vertex="1">
          <mxGeometry x="1170" y="320" width="100" height="80" as="geometry" />
        </mxCell>
        <mxCell id="r_vhM-KLNuA45PHsS9CR-41" value="Task Details" style="rhombus;whiteSpace=wrap;html=1;shadow=0;fontFamily=Helvetica;fontSize=12;align=center;strokeWidth=1;spacing=6;spacingTop=-4;" parent="WIyWlLk6GJQsqaUBKTNV-1" vertex="1">
          <mxGeometry x="1050" y="319" width="100" height="80" as="geometry" />
        </mxCell>
        <mxCell id="r_vhM-KLNuA45PHsS9CR-42" value="" style="endArrow=classic;html=1;rounded=0;entryX=0.5;entryY=0;entryDx=0;entryDy=0;" parent="WIyWlLk6GJQsqaUBKTNV-1" target="r_vhM-KLNuA45PHsS9CR-41" edge="1">
          <mxGeometry width="50" height="50" relative="1" as="geometry">
            <mxPoint x="1130" y="259" as="sourcePoint" />
            <mxPoint x="1050" y="330" as="targetPoint" />
          </mxGeometry>
        </mxCell>
      </root>
    </mxGraphModel>
  </diagram>
</mxfile>
